<mxfile host="app.diagrams.net" modified="2025-01-04T11:46:14.106Z" agent="Mozilla/5.0 (Macintosh; Intel Mac OS X 10_15_7) AppleWebKit/537.36 (KHTML, like Gecko) Chrome/131.0.0.0 Safari/537.36" etag="dzpsJ1dF9XlY2cxTlhL_" version="23.0.2" type="device">
  <diagram name="Page-1" id="929967ad-93f9-6ef4-fab6-5d389245f69c">
    <mxGraphModel dx="681" dy="439" grid="1" gridSize="10" guides="1" tooltips="1" connect="1" arrows="1" fold="1" page="1" pageScale="1.5" pageWidth="1169" pageHeight="826" background="none" math="0" shadow="0">
      <root>
        <mxCell id="0" style=";html=1;" />
        <mxCell id="1" style=";html=1;" parent="0" />
        <mxCell id="E-_34pETqjW7PfrsKOJ0-3" value="&lt;b&gt;&amp;nbsp;Strategy Design Pattern&lt;/b&gt;&lt;p style=&quot;margin:0px;margin-top:4px;margin-left:10px;text-align:left;&quot;&gt;&lt;/p&gt;" style="html=1;shape=mxgraph.sysml.package;labelX=142.77;align=left;spacingLeft=10;overflow=fill;recursiveResize=0;noLabel=0;labelPadding=10;direction=east;snapToPoint=0;perimeter=ellipsePerimeter;fixDash=0;container=0;movable=1;movableLabel=0;" vertex="1" parent="1">
          <mxGeometry x="135" y="344" width="665" height="416" as="geometry" />
        </mxCell>
        <mxCell id="E-_34pETqjW7PfrsKOJ0-9" value="&amp;lt;&amp;lt;IPaymentStrategy&amp;gt;&amp;gt;" style="swimlane;fontStyle=1;align=center;verticalAlign=top;childLayout=stackLayout;horizontal=1;startSize=30;horizontalStack=0;resizeParent=1;resizeParentMax=0;resizeLast=0;collapsible=1;marginBottom=0;whiteSpace=wrap;html=1;" vertex="1" parent="1">
          <mxGeometry x="380" y="520" width="180" height="56" as="geometry">
            <mxRectangle x="380" y="520" width="170" height="30" as="alternateBounds" />
          </mxGeometry>
        </mxCell>
        <mxCell id="E-_34pETqjW7PfrsKOJ0-12" value="+ Pay(amount): void" style="text;strokeColor=none;fillColor=none;align=left;verticalAlign=top;spacingLeft=4;spacingRight=4;overflow=hidden;rotatable=0;points=[[0,0.5],[1,0.5]];portConstraint=eastwest;whiteSpace=wrap;html=1;" vertex="1" parent="E-_34pETqjW7PfrsKOJ0-9">
          <mxGeometry y="30" width="180" height="26" as="geometry" />
        </mxCell>
        <mxCell id="E-_34pETqjW7PfrsKOJ0-18" value="CreditCardPayment" style="swimlane;fontStyle=1;align=center;verticalAlign=top;childLayout=stackLayout;horizontal=1;startSize=30;horizontalStack=0;resizeParent=1;resizeParentMax=0;resizeLast=0;collapsible=1;marginBottom=0;whiteSpace=wrap;html=1;" vertex="1" parent="1">
          <mxGeometry x="180" y="650" width="180" height="56" as="geometry" />
        </mxCell>
        <mxCell id="E-_34pETqjW7PfrsKOJ0-19" value="+ Pay(amount): void" style="text;strokeColor=none;fillColor=none;align=left;verticalAlign=top;spacingLeft=4;spacingRight=4;overflow=hidden;rotatable=0;points=[[0,0.5],[1,0.5]];portConstraint=eastwest;whiteSpace=wrap;html=1;" vertex="1" parent="E-_34pETqjW7PfrsKOJ0-18">
          <mxGeometry y="30" width="180" height="26" as="geometry" />
        </mxCell>
        <mxCell id="E-_34pETqjW7PfrsKOJ0-20" value="PayPalPayment" style="swimlane;fontStyle=1;align=center;verticalAlign=top;childLayout=stackLayout;horizontal=1;startSize=30;horizontalStack=0;resizeParent=1;resizeParentMax=0;resizeLast=0;collapsible=1;marginBottom=0;whiteSpace=wrap;html=1;" vertex="1" parent="1">
          <mxGeometry x="380" y="650" width="180" height="56" as="geometry" />
        </mxCell>
        <mxCell id="E-_34pETqjW7PfrsKOJ0-21" value="+ Pay(amount): void" style="text;strokeColor=none;fillColor=none;align=left;verticalAlign=top;spacingLeft=4;spacingRight=4;overflow=hidden;rotatable=0;points=[[0,0.5],[1,0.5]];portConstraint=eastwest;whiteSpace=wrap;html=1;" vertex="1" parent="E-_34pETqjW7PfrsKOJ0-20">
          <mxGeometry y="30" width="180" height="26" as="geometry" />
        </mxCell>
        <mxCell id="E-_34pETqjW7PfrsKOJ0-22" value="CryptoPayment" style="swimlane;fontStyle=1;align=center;verticalAlign=top;childLayout=stackLayout;horizontal=1;startSize=30;horizontalStack=0;resizeParent=1;resizeParentMax=0;resizeLast=0;collapsible=1;marginBottom=0;whiteSpace=wrap;html=1;" vertex="1" parent="1">
          <mxGeometry x="580" y="650" width="180" height="56" as="geometry" />
        </mxCell>
        <mxCell id="E-_34pETqjW7PfrsKOJ0-23" value="+ Pay(amount): void" style="text;strokeColor=none;fillColor=none;align=left;verticalAlign=top;spacingLeft=4;spacingRight=4;overflow=hidden;rotatable=0;points=[[0,0.5],[1,0.5]];portConstraint=eastwest;whiteSpace=wrap;html=1;" vertex="1" parent="E-_34pETqjW7PfrsKOJ0-22">
          <mxGeometry y="30" width="180" height="26" as="geometry" />
        </mxCell>
        <mxCell id="E-_34pETqjW7PfrsKOJ0-24" value="" style="endArrow=classic;html=1;rounded=0;arcSize=20;anchorPointDirection=1;startFill=1;endFill=0;exitX=0.004;exitY=0.99;exitDx=0;exitDy=0;exitPerimeter=0;entryX=0.75;entryY=0;entryDx=0;entryDy=0;" edge="1" parent="1" source="E-_34pETqjW7PfrsKOJ0-12" target="E-_34pETqjW7PfrsKOJ0-18">
          <mxGeometry width="50" height="50" relative="1" as="geometry">
            <mxPoint x="250.00070605167923" y="637.4879779283974" as="sourcePoint" />
            <mxPoint x="369.61320754716996" y="579.9999999999999" as="targetPoint" />
          </mxGeometry>
        </mxCell>
        <mxCell id="E-_34pETqjW7PfrsKOJ0-25" value="" style="endArrow=classic;html=1;rounded=0;exitX=0.484;exitY=0.961;exitDx=0;exitDy=0;exitPerimeter=0;arcSize=20;anchorPointDirection=1;startFill=1;endFill=0;entryX=0.5;entryY=0;entryDx=0;entryDy=0;" edge="1" parent="1" source="E-_34pETqjW7PfrsKOJ0-12" target="E-_34pETqjW7PfrsKOJ0-20">
          <mxGeometry width="50" height="50" relative="1" as="geometry">
            <mxPoint x="463" y="585" as="sourcePoint" />
            <mxPoint x="380" y="655" as="targetPoint" />
          </mxGeometry>
        </mxCell>
        <mxCell id="E-_34pETqjW7PfrsKOJ0-26" value="" style="endArrow=classic;html=1;rounded=0;exitX=1;exitY=1;exitDx=0;exitDy=0;arcSize=20;anchorPointDirection=1;startFill=1;endFill=0;entryX=0.25;entryY=0;entryDx=0;entryDy=0;" edge="1" parent="1" source="E-_34pETqjW7PfrsKOJ0-9" target="E-_34pETqjW7PfrsKOJ0-22">
          <mxGeometry width="50" height="50" relative="1" as="geometry">
            <mxPoint x="580" y="546.0039999999999" as="sourcePoint" />
            <mxPoint x="647.6999999999999" y="619.8999999999999" as="targetPoint" />
          </mxGeometry>
        </mxCell>
        <mxCell id="E-_34pETqjW7PfrsKOJ0-27" value="Shopping Cart" style="swimlane;fontStyle=1;align=center;verticalAlign=top;childLayout=stackLayout;horizontal=1;startSize=26;horizontalStack=0;resizeParent=1;resizeParentMax=0;resizeLast=0;collapsible=1;marginBottom=0;whiteSpace=wrap;html=1;" vertex="1" parent="1">
          <mxGeometry x="360" y="380" width="220" height="100" as="geometry" />
        </mxCell>
        <mxCell id="E-_34pETqjW7PfrsKOJ0-28" value="- _paymentStrategy: IPaymentStrategy" style="text;strokeColor=none;fillColor=none;align=left;verticalAlign=top;spacingLeft=4;spacingRight=4;overflow=hidden;rotatable=0;points=[[0,0.5],[1,0.5]];portConstraint=eastwest;whiteSpace=wrap;html=1;" vertex="1" parent="E-_34pETqjW7PfrsKOJ0-27">
          <mxGeometry y="26" width="220" height="26" as="geometry" />
        </mxCell>
        <mxCell id="E-_34pETqjW7PfrsKOJ0-29" value="" style="line;strokeWidth=1;fillColor=none;align=left;verticalAlign=middle;spacingTop=-1;spacingLeft=3;spacingRight=3;rotatable=0;labelPosition=right;points=[];portConstraint=eastwest;strokeColor=inherit;" vertex="1" parent="E-_34pETqjW7PfrsKOJ0-27">
          <mxGeometry y="52" width="220" height="8" as="geometry" />
        </mxCell>
        <mxCell id="E-_34pETqjW7PfrsKOJ0-30" value="+ SetPaymentStrategy(strategy): void&lt;br&gt;+ Checkout(amount): void" style="text;strokeColor=none;fillColor=none;align=left;verticalAlign=top;spacingLeft=4;spacingRight=4;overflow=hidden;rotatable=0;points=[[0,0.5],[1,0.5]];portConstraint=eastwest;whiteSpace=wrap;html=1;" vertex="1" parent="E-_34pETqjW7PfrsKOJ0-27">
          <mxGeometry y="60" width="220" height="40" as="geometry" />
        </mxCell>
        <mxCell id="E-_34pETqjW7PfrsKOJ0-32" value="" style="endArrow=classic;html=1;rounded=0;entryX=0.5;entryY=0;entryDx=0;entryDy=0;strokeColor=default;bendable=0;exitX=0.5;exitY=1;exitDx=0;exitDy=0;" edge="1" parent="1" source="E-_34pETqjW7PfrsKOJ0-27">
          <mxGeometry width="50" height="50" relative="1" as="geometry">
            <mxPoint x="470" y="480" as="sourcePoint" />
            <mxPoint x="469.92" y="520" as="targetPoint" />
          </mxGeometry>
        </mxCell>
      </root>
    </mxGraphModel>
  </diagram>
</mxfile>
